<svg width="16" height="16" fill="none" xmlns="http://www.w3.org/2000/svg"><path d="M1.75 2.56c0-.896 0-1.344.178-1.686.157-.301.407-.546.715-.7C2.993 0 3.45 0 4.365 0H8.36c.4 0 .6 0 .788.044.167.04.326.104.472.192.165.099.307.237.59.514l3.275 3.206c.283.277.424.415.525.577.09.143.156.299.196.462.045.184.045.38.045.771v7.674c0 .896 0 1.344-.178 1.686a1.618 1.618 0 01-.714.7c-.35.174-.808.174-1.723.174h-7.27c-.915 0-1.373 0-1.722-.174a1.618 1.618 0 01-.715-.7c-.178-.342-.178-.79-.178-1.686V2.56z" fill="#000"/><path d="M8.25 0v3.28c0 .952 0 1.428.185 1.792.163.32.423.58.743.743.364.185.84.185 1.792.185h3.28" stroke="#fff"/><path d="M5 8.441h6m-6 2.647h4" stroke="#fff" stroke-linecap="round"/></svg>