<svg width="16" height="16" fill="none" xmlns="http://www.w3.org/2000/svg"><path fill-rule="evenodd" clip-rule="evenodd" d="M2.98 0h9.692c.472 0 .88 0 1.184.043.295.042.706.152.882.568.175.416-.032.787-.208 1.028-.181.248-.465.54-.794.879l-2.23 2.294c-.33.339-.542.559-.678.741-.127.171-.142.251-.142.304 0 .053.015.133.142.304.136.183.348.402.678.742l2.23 2.294c.329.338.613.63.794.879.176.24.383.612.208 1.027-.176.416-.587.526-.882.568-.304.043-.712.043-1.184.043H3V15.5a.5.5 0 11-1 0V.98c0-.1 0-.219.014-.32A.744.744 0 012.22.22a.744.744 0 01.44-.206C2.76 0 2.88 0 2.98 0z" fill="#000"/></svg>