<svg width="16" height="16" fill="none" xmlns="http://www.w3.org/2000/svg"><path d="M8.441.5v2.894c0 .84 0 1.26.164 1.581.144.282.374.512.657.656.322.163.743.163 1.585.163h2.902m-.705-1.585l-3.013-3.006c-.26-.26-.39-.39-.542-.482a1.506 1.506 0 0 0-.435-.18C8.881.5 8.697.5 8.33.5H4.655C3.813.5 3.392.5 3.07.663a1.502 1.502 0 0 0-.657.656c-.164.32-.164.74-.164 1.581v10.2c0 .84 0 1.26.164 1.581.144.282.374.512.657.655.322.164.743.164 1.585.164h6.688c.842 0 1.263 0 1.585-.164.283-.143.513-.373.657-.655.164-.32.164-.74.164-1.581V5.906c0-.367 0-.55-.042-.723a1.498 1.498 0 0 0-.18-.434c-.093-.151-.223-.28-.483-.54z" stroke="#000"/><path d="M5 8.441h6m-6 2.647h4" stroke="#000" stroke-linecap="round"/></svg>