<svg width="16" height="16" viewBox="0 0 16 16" fill="none" xmlns="http://www.w3.org/2000/svg">
<path d="M2.5 11.2143V0.999999C2.5 0.764298 2.5 0.646447 2.57322 0.573223C2.64645 0.5 2.7643 0.5 3 0.5H12.6331C13.6431 0.5 14.1481 0.5 14.2771 0.80541C14.4061 1.11082 14.0541 1.47291 13.3501 2.19708L11.1471 4.46299C10.5066 5.12177 10.1864 5.45115 10.1864 5.85714C10.1864 6.26313 10.5066 6.59252 11.1471 7.2513L13.3501 9.51721C14.0541 10.2414 14.4061 10.6035 14.2771 10.9089C14.1481 11.2143 13.6431 11.2143 12.6331 11.2143H2.5ZM2.5 11.2143V15.5" stroke="black" stroke-linecap="round"/>
</svg>
