<svg width="16" height="16" fill="none" xmlns="http://www.w3.org/2000/svg"><path d="M6.386 3.295C7.07 1.59 7.412.738 8 .738c.588 0 .93.852 1.614 2.557l.032.08c.386.963.58 1.445.973 1.737.394.293.91.34 1.945.432l.187.017c1.691.151 2.537.227 2.718.765.181.538-.447 1.11-1.703 2.253l-.42.382c-.636.578-.954.868-1.102 1.247-.028.07-.05.143-.069.217-.097.395-.004.815.182 1.654l.058.262c.342 1.542.514 2.314.215 2.647a.87.87 0 0 1-.418.257c-.432.118-1.044-.381-2.27-1.38-.804-.655-1.206-.983-1.668-1.056a1.74 1.74 0 0 0-.548 0c-.462.073-.864.401-1.669 1.057-1.225.998-1.837 1.497-2.269 1.38a.87.87 0 0 1-.418-.258c-.299-.333-.127-1.105.215-2.647l.058-.262c.186-.84.28-1.259.182-1.654a1.736 1.736 0 0 0-.069-.217c-.148-.38-.466-.669-1.102-1.247l-.42-.382C.978 7.436.35 6.864.531 6.326c.18-.538 1.027-.614 2.718-.765l.187-.017c1.034-.093 1.551-.139 1.945-.432.394-.292.587-.774.973-1.737l.032-.08z" fill="#000"/></svg>